HIERARCHY
ROOT hip
{
	OFFSET 0.000000 0.000000 0.000000 
	CHANNELS 6 Xposition Yposition Zposition Xrotation Zrotation Yrotation
	JOINT abdomen
	{
		OFFSET 0.000000 3.402643 0.000000 
		CHANNELS 3 Xrotation Zrotation Yrotation
		JOINT chest
		{
			OFFSET 0.000000 8.438565 -0.680529 
			CHANNELS 3 Xrotation Zrotation Yrotation
			JOINT neck
			{
				OFFSET 0.000000 10.207942 -0.272212 
				CHANNELS 3 Xrotation Zrotation Yrotation
				JOINT head
				{
					OFFSET 0.000000 3.130431 0.000000 
					CHANNELS 3 Xrotation Zrotation Yrotation
					End Site
					{
						OFFSET 0.000000 3.130435 0.000000 
					}
				}
			}
			JOINT lCollar
			{
				OFFSET 3.470700 6.669187 -0.816635 
				CHANNELS 3 Yrotation Zrotation Xrotation
				JOINT lShldr
				{
					OFFSET 3.198488 0.000000 0.000000 
					CHANNELS 3 Zrotation Yrotation Xrotation
					JOINT lForeArm
					{
						OFFSET 10.139888 0.000000 0.000000 
						CHANNELS 3 Yrotation Zrotation Xrotation
						JOINT lHand
						{
							OFFSET 8.370511 0.000000 0.000000 
							CHANNELS 3 Zrotation Yrotation Xrotation
							End Site
							{
								OFFSET 4.083176 0.000000 0.000000 
							}
						}
					}
				}
			}
			JOINT rCollar
			{
				OFFSET -3.470700 6.669187 -0.816635 
				CHANNELS 3 Yrotation Zrotation Xrotation
				JOINT rShldr
				{
					OFFSET -3.198488 0.000000 0.000000 
					CHANNELS 3 Zrotation Yrotation Xrotation
					JOINT rForeArm
					{
						OFFSET -10.139888 0.000000 0.000000 
						CHANNELS 3 Yrotation Zrotation Xrotation
						JOINT rHand
						{
							OFFSET -8.370511 0.000000 0.000000 
							CHANNELS 3 Zrotation Yrotation Xrotation
							End Site
							{
								OFFSET -4.083176 0.000000 0.000000 
							}
						}
					}
				}
			}
		}
	}
	JOINT lThigh
	{
		OFFSET 5.308129 -1.633274 1.361059 
		CHANNELS 3 Xrotation Zrotation Yrotation
		JOINT lShin
		{
			OFFSET -2.041588 -20.007561 0.000000 
			CHANNELS 3 Xrotation Zrotation Yrotation
			JOINT lFoot
			{
				OFFSET 0.000000 -19.190928 -1.224953 
				CHANNELS 3 Xrotation Yrotation Zrotation
				End Site
				{
					OFFSET 0.000000 -2.449906 4.627600 
				}
			}
		}
	}
	JOINT rThigh
	{
		OFFSET -5.308129 -1.633274 1.361059 
		CHANNELS 3 Xrotation Zrotation Yrotation
		JOINT rShin
		{
			OFFSET 2.041588 -20.007561 0.000000 
			CHANNELS 3 Xrotation Zrotation Yrotation
			JOINT rFoot
			{
				OFFSET 0.000000 -19.190928 -1.224953 
				CHANNELS 3 Xrotation Yrotation Zrotation
				End Site
				{
					OFFSET 0.000000 -2.449906 4.627600 
				}
			}
		}
	}
}
MOTION
Frames: 14
Frame Time: 0.016667
-10.518357 35.327103 9.501995 -3.395876 -8.403399 103.152046 17.347992 13.395385 -12.353642 -20.839844 0.000000 0.000000 -33.894978 -3.724232 -15.455373 -2.520846 -1.255050 0.218350 -4.754609 -0.109182 -0.002653 -18.072910 18.950827 -5.187528 -105.040565 -27.137051 -10.362222 -5.840536 15.691870 -7.085329 4.754609 0.109182 -0.002671 72.241257 5.478760 -10.439378 76.754486 -1.755236 27.116760 16.750635 -30.123737 35.531525 -47.138260 4.668348 -7.912903 75.812920 11.373679 -9.961106 -42.199806 -1.917604 -8.440947 -33.609047 -30.598909 -15.434401 75.182487 12.001777 9.094633 -41.931877 13.957522 -7.697021 
-10.511750 35.321526 9.510677 -3.386176 -8.422980 103.151756 17.321007 13.248355 -12.465182 -20.839844 0.000000 0.000000 -34.129562 -3.852314 -15.163433 -2.520846 -1.255050 0.218350 -4.754609 -0.109182 -0.002653 -18.042665 18.735916 -5.261150 -105.020744 -27.068151 -10.517299 -6.076637 15.749966 -7.383897 4.754609 0.109182 -0.002671 72.414261 5.688965 -10.329870 77.193817 -1.779324 26.977961 16.940195 -30.136536 35.265610 -47.148853 4.668259 -7.922858 75.803108 11.364529 -9.978631 -42.213997 -1.923026 -8.507647 -33.629623 -30.649378 -15.456853 75.221344 12.021391 9.117654 -41.933411 14.021889 -7.762562 
-10.506677 35.319489 9.518851 -3.396219 -8.442393 103.164093 17.295027 13.085179 -12.558955 -20.839844 0.000000 0.000000 -34.384636 -3.985874 -14.872663 -2.520846 -1.255050 0.218350 -4.754609 -0.109182 -0.002653 -17.947123 18.473913 -5.327330 -104.993896 -27.015083 -10.635307 -6.296661 15.839352 -7.643332 4.754609 0.109182 -0.002671 72.603653 5.881297 -10.201282 77.685783 -1.781718 26.851969 17.025568 -30.163656 35.037342 -47.167606 4.668276 -7.911691 75.790031 11.395546 -9.988025 -42.212475 -1.912513 -8.534915 -33.637936 -30.666565 -15.488236 75.230835 12.060015 9.100296 -41.882698 14.095446 -7.923387 
-10.504144 35.321022 9.525552 -3.445755 -8.461460 103.172424 17.279182 12.921576 -12.653603 -20.839844 0.000000 0.000000 -34.640656 -4.117743 -14.599507 -2.520846 -1.255050 0.218350 -4.754609 -0.109182 -0.002653 -17.801987 18.173872 -5.408926 -104.960190 -26.977722 -10.716168 -6.503656 15.951873 -7.844562 4.754609 0.109182 -0.002671 72.796371 6.074205 -10.052368 78.222916 -1.753330 26.771416 17.011431 -30.226559 34.873447 -47.224377 4.706923 -7.934119 75.808075 11.426092 -9.971614 -42.196259 -1.915542 -8.487788 -33.642078 -30.643688 -15.505955 75.200409 12.108996 9.062830 -41.764523 14.134616 -8.197204 
-10.503633 35.325081 9.529714 -3.505080 -8.470684 103.171867 17.273977 12.779613 -12.750442 -20.839844 0.000000 0.000000 -34.875397 -4.210049 -14.355822 -2.520846 -1.255050 0.218350 -4.754609 -0.109182 -0.002653 -17.620121 17.816273 -5.488484 -104.877449 -26.947756 -10.787973 -6.672437 16.044064 -8.057170 4.754609 0.109182 -0.002671 72.977814 6.295789 -9.884980 78.822052 -1.724533 26.717817 16.927441 -30.349724 34.773041 -47.238392 4.775407 -7.949534 75.797531 11.434421 -9.966762 -42.163208 -1.941792 -8.387030 -33.638767 -30.570253 -15.512572 75.161201 12.148086 8.996649 -41.658043 14.157500 -8.448359 
-10.503633 35.328117 9.530628 -3.574190 -8.470060 103.162407 17.268587 12.663074 -12.857718 -20.839844 0.000000 0.000000 -35.076946 -4.257801 -14.100116 -2.520846 -1.255050 0.218350 -4.754609 -0.109182 -0.002653 -17.411901 17.361582 -5.579930 -104.731918 -26.921379 -10.888776 -6.830828 16.101158 -8.346314 4.754609 0.109182 -0.002671 73.177895 6.538564 -9.707408 79.496506 -1.701159 26.699696 16.853687 -30.504267 34.724808 -47.273357 4.833669 -7.969824 75.805664 11.464280 -9.951721 -42.139591 -1.932618 -8.316639 -33.650261 -30.494869 -15.520324 75.121193 12.177632 8.961823 -41.565262 14.159167 -8.592265 
-10.502107 35.329132 9.528293 -3.653080 -8.459589 103.135674 17.271753 12.540224 -12.977939 -20.839844 0.000000 0.000000 -35.203159 -4.251065 -13.779445 -2.520846 -1.255050 0.218350 -4.754609 -0.109182 -0.002653 -17.199539 16.818899 -5.703323 -104.515732 -26.890030 -11.026199 -6.964706 16.121346 -8.736073 4.754609 0.109182 -0.002671 73.414688 6.813750 -9.522295 80.254341 -1.694625 26.695236 16.889826 -30.653896 34.659241 -47.274261 4.911751 -7.960393 75.831322 11.515308 -9.940120 -42.178165 -1.915093 -8.339880 -33.638264 -30.374258 -15.492851 75.081207 12.206463 8.926409 -41.527077 14.139759 -8.614399 
-10.498567 35.328117 9.523316 -3.731872 -8.439357 103.097084 17.260214 12.377874 -13.131727 -20.839844 0.000000 0.000000 -35.263763 -4.206543 -13.352612 -2.520846 -1.255050 0.218350 -4.754609 -0.109182 -0.002653 -16.922928 16.199457 -5.845820 -104.249352 -26.843693 -11.191334 -7.074882 16.106447 -9.192913 4.754609 0.109182 -0.002671 73.730598 7.105240 -9.328224 81.069099 -1.736975 26.691584 17.073969 -30.785507 34.563957 -47.254860 5.009315 -7.968648 75.837845 11.553125 -9.950095 -42.203960 -1.914153 -8.389156 -33.631210 -30.261208 -15.475970 75.051651 12.216226 8.898309 -41.533154 14.094257 -8.558626 
-10.493485 35.324562 9.515957 -3.810560 -8.409369 103.057793 17.234030 12.128518 -13.304987 -20.839844 0.000000 0.000000 -35.259659 -4.131947 -12.825144 -2.520846 -1.255050 0.218350 -4.754609 -0.109182 -0.002653 -16.560976 15.523388 -6.002253 -103.970238 -26.798616 -11.382894 -7.163026 16.048077 -9.697760 4.754609 0.109182 -0.002671 74.146912 7.395114 -9.137554 81.940704 -1.826199 26.682173 17.444218 -30.885880 34.421539 -47.249676 5.068380 -7.981310 75.886200 11.571366 -9.941416 -42.262844 -1.882905 -8.413731 -33.642067 -30.116381 -15.432577 75.033554 12.177684 8.875240 -41.543198 14.023111 -8.459029 
-10.487901 35.320511 9.506160 -3.899108 -8.379274 103.010078 17.205376 11.819752 -13.485900 -20.839844 0.000000 0.000000 -35.261105 -4.037016 -12.206221 -2.520846 -1.255050 0.218350 -4.754609 -0.109182 -0.002653 -16.126638 14.809696 -6.182961 -103.709969 -26.764008 -11.576626 -7.216558 15.979779 -10.190126 4.754609 0.109182 -0.002671 74.606819 7.669062 -8.946409 82.912369 -1.937104 26.652363 17.991358 -30.971600 34.202484 -47.243668 5.136311 -7.997200 75.932320 11.610495 -9.953430 -42.318951 -1.836773 -8.485555 -33.650974 -29.949013 -15.345026 75.004257 12.177293 8.849266 -41.564487 13.941267 -8.358587 
-10.483834 35.317467 9.494127 -3.997513 -8.349068 102.953934 17.206068 11.478648 -13.663079 -20.839844 0.000000 0.000000 -35.278561 -3.937527 -11.473913 -2.520846 -1.255050 0.218350 -4.754609 -0.109182 -0.002653 -15.658350 14.057500 -6.388662 -103.465591 -26.701147 -11.760169 -7.246471 15.904195 -10.644648 4.754609 0.109182 -0.002671 75.036232 7.960195 -8.754543 83.962143 -2.047961 26.599274 18.675259 -31.001055 33.926964 -47.254047 5.234331 -8.014089 75.977776 11.652013 -9.965995 -42.430653 -1.780025 -8.734349 -33.658550 -29.779833 -15.276776 74.974922 12.177381 8.823658 -41.551716 13.887482 -8.299080 
-10.484353 35.314919 9.480774 -4.135585 -8.337915 102.894966 17.229412 11.139605 -13.815632 -20.839844 0.000000 0.000000 -35.347992 -3.826830 -10.533243 -2.520846 -1.255050 0.218350 -4.754609 -0.109182 -0.002653 -15.241181 13.255438 -6.617046 -103.192802 -26.609358 -11.894029 -7.274872 15.868657 -11.067062 4.754609 0.109182 -0.002671 75.368050 8.301954 -8.581541 85.022041 -2.159339 26.577097 19.445986 -30.953356 33.670994 -47.257965 5.380947 -8.020669 75.982422 11.678334 -10.051856 -42.548317 -1.695651 -9.166876 -33.661510 -29.608454 -15.252751 74.935371 12.187074 8.793364 -41.537819 13.840447 -8.267708 
-10.489419 35.311371 9.467017 -4.273756 -8.336457 102.836662 17.275040 10.815438 -13.953996 -20.839844 0.000000 0.000000 -35.435574 -3.689141 -9.267879 -2.520846 -1.255050 0.218350 -4.754609 -0.109182 -0.002653 -14.931634 12.402674 -6.863532 -102.857323 -26.491892 -12.000312 -7.278939 15.871431 -11.486782 4.754609 0.109182 -0.002671 75.588669 8.732466 -8.417873 86.036552 -2.291222 26.613764 20.273903 -30.832853 33.519943 -47.287659 5.546548 -8.014164 75.963951 11.728465 -10.169570 -42.696487 -1.538001 -9.853219 -33.709160 -29.479820 -15.224722 74.924316 12.216475 8.793633 -41.514984 13.859850 -8.277327 
-10.499574 35.304260 9.453715 -4.372667 -8.354861 102.764404 17.297499 10.461405 -14.122400 -20.839844 0.000000 0.000000 -35.491768 -3.531396 -7.614441 -2.520846 -1.255050 0.218350 -4.754609 -0.109182 -0.002653 -14.689971 11.519864 -7.117712 -102.472183 -26.364040 -12.120384 -7.279670 15.878367 -11.956216 4.754609 0.109182 -0.002671 75.704491 9.242149 -8.294408 86.950073 -2.460675 26.726887 21.115938 -30.678392 33.466698 -47.336517 5.693327 -7.980816 75.968513 11.720529 -10.328663 -42.920704 -1.371544 -10.756483 -33.767662 -29.382053 -15.216717 74.923279 12.245731 8.795925 -41.491703 13.880754 -8.312497 
